<?xml version="1.0" encoding="UTF-8"?>
<svg version="1.1" xmlns="http://www.w3.org/2000/svg" width="402" height="402">
<path d="M0 0 C1.00869141 0.32935547 2.01738281 0.65871094 3.05664062 0.99804688 C5.51959819 1.80346902 7.97912588 2.61823547 10.4375 3.4375 C12.37298188 12.38782796 10.05403045 19.94592917 7.453125 28.4609375 C7.00812908 29.96621263 6.56478228 31.47197609 6.12294006 32.97817993 C5.16701553 36.22404635 4.19979823 39.46624617 3.22354126 42.70605469 C1.66543119 47.87696896 0.13214393 53.05504061 -1.39770508 58.234375 C-3.59840597 65.67695481 -5.81017035 73.11616893 -8.02783203 80.55371094 C-13.25718893 98.10072607 -18.40116552 115.67290575 -23.55239296 133.24297905 C-25.33413577 139.31926294 -27.11956715 145.39444525 -28.90875149 151.4685421 C-30.03334202 155.28684952 -31.15650159 159.1055771 -32.27948189 162.92435837 C-32.79887635 164.68934295 -33.31889351 166.45414443 -33.83961296 168.21873856 C-36.89907508 178.58810582 -39.83856266 188.9744215 -42.5625 199.4375 C-49.83146603 200.85063884 -55.69479374 200.23177498 -62.75 198.25 C-63.49749512 198.04157471 -64.24499023 197.83314941 -65.01513672 197.6184082 C-70.18679037 196.07443534 -74.79298955 193.95999307 -79.5625 191.4375 C-80.21098285 182.40446087 -78.31843786 174.76296283 -75.671875 166.1875 C-75.25436745 164.7948095 -74.8382215 163.40171021 -74.42332458 162.00823975 C-73.30319569 158.25943382 -72.16488009 154.51638 -71.02318954 150.77409363 C-69.8250402 146.83483753 -68.64435257 142.8903566 -67.4621582 138.94628906 C-65.49480677 132.38944693 -63.51825605 125.83544604 -61.53564453 119.28320312 C-58.6655768 109.79475545 -55.82583597 100.29741688 -52.99609375 90.796875 C-52.77320553 90.04869003 -52.55031731 89.30050507 -52.3206749 88.52964783 C-51.43673154 85.56241108 -50.55283207 82.59516129 -49.66915321 79.62784576 C-47.82844584 73.44784893 -45.98184033 67.26962515 -44.13397217 61.09176636 C-42.64081933 56.09956846 -41.15079699 51.10643648 -39.66064453 46.11334229 C-38.91487996 43.61702886 -38.16793112 41.12106898 -37.41992188 38.62542725 C-36.31253901 34.93073391 -35.2086953 31.23499868 -34.10546875 27.5390625 C-33.60964546 25.88991852 -33.60964546 25.88991852 -33.10380554 24.2074585 C-31.11481701 17.52858709 -29.39113716 10.89781804 -28.1328125 4.0390625 C-27.53710146 1.3216409 -26.76753841 -1.05459718 -25.5625 -3.5625 C-17.79683467 -6.85702469 -7.48226194 -2.5006898 0 0 Z " fill="#FCFCFC" transform="translate(234.5625,102.5625)"/>
<path d="M0 0 C7.53745219 -0.30149809 7.53745219 -0.30149809 10.64453125 2.15625 C12.33203125 4.19921875 12.33203125 4.19921875 13.71875 6.23828125 C15.51020359 8.41128175 17.05730092 9.6918447 19.3203125 11.3203125 C24.07403753 14.7712213 28.06117088 18.80563443 32.14453125 23.01171875 C36.83832741 27.82093612 41.57408524 32.4456107 46.67138672 36.82592773 C50.08982948 39.85481522 53.261417 43.12621893 56.45703125 46.38671875 C57.75283762 47.70805825 59.0509228 49.02716783 60.3515625 50.34375 C60.91335205 50.91714111 61.4751416 51.49053223 62.05395508 52.08129883 C63.78017402 53.7837979 63.78017402 53.7837979 66.64453125 55.57421875 C67.74448374 58.72741588 67.57769876 61.39047077 66.64453125 64.57421875 C64.47757228 67.14944536 62.11931446 69.13329251 59.50390625 71.25 C56.63679665 73.58050576 54.0965093 76.05421488 51.51953125 78.69921875 C48.68554582 81.56840897 45.84015196 84.3353846 42.76953125 86.94921875 C39.21166949 89.98852576 35.93010828 93.24785243 32.64453125 96.57421875 C28.77407635 100.49272399 24.86515505 104.25017464 20.625 107.7734375 C18.504894 109.63387748 18.504894 109.63387748 16.3203125 112.21875 C9.16663834 120.24838426 9.16663834 120.24838426 2.95703125 120.69921875 C-1.1415309 120.28017808 -3.1935829 119.33784456 -5.91796875 116.26171875 C-7.06888241 114.70295705 -8.21408075 113.13996896 -9.35546875 111.57421875 C-11.10767433 109.57245662 -12.87107094 107.59682487 -14.66796875 105.63671875 C-15.50972656 104.69957031 -16.35148438 103.76242188 -17.21875 102.796875 C-19.15413906 100.53535679 -19.15413906 100.53535679 -21.35546875 99.57421875 C-21.91489263 96.0498483 -22.17667019 93.9785665 -21.35546875 90.57421875 C-18.47643956 87.04086475 -14.90551972 84.40868353 -11.35546875 81.57421875 C-9.32472656 79.77369832 -7.34023657 77.92514954 -5.35546875 76.07421875 C-2.39982649 73.3369996 0.56998642 70.63812826 3.62890625 68.015625 C4.5415625 67.23058594 5.45421875 66.44554687 6.39453125 65.63671875 C7.214375 64.94707031 8.03421875 64.25742188 8.87890625 63.546875 C11.08914741 61.51870417 11.08914741 61.51870417 10.64453125 57.57421875 C9.17032972 56.05745706 9.17032972 56.05745706 7.14453125 54.82421875 C3.2099697 52.0741819 -0.01400081 49.01486745 -3.35546875 45.58203125 C-5.29252848 43.63740488 -7.286219 41.81422928 -9.35546875 40.01171875 C-10.00386719 39.439375 -10.65226563 38.86703125 -11.3203125 38.27734375 C-13.35734415 36.52623693 -13.35734415 36.52623693 -15.671875 34.93359375 C-16.41308594 34.381875 -17.15429688 33.83015625 -17.91796875 33.26171875 C-18.59988281 32.79121094 -19.28179687 32.32070312 -19.984375 31.8359375 C-21.984895 28.53593442 -21.71883206 25.96529692 -21.19458008 22.2019043 C-19.64536162 17.35051114 -16.1331007 14.45368617 -12.41796875 11.13671875 C-10.94895108 9.76469964 -9.48143639 8.39106905 -8.015625 7.015625 C-7.36215088 6.42467041 -6.70867676 5.83371582 -6.03540039 5.22485352 C-0.95467387 0.23273144 -0.95467387 0.23273144 0 0 Z " fill="#FCFCFC" transform="translate(261.35546875,140.42578125)"/>
<path d="M0 0 C2.375 0.3515625 2.375 0.3515625 4.8125 2.0390625 C6.375 4.3515625 6.375 4.3515625 7.625 6.6015625 C10.86727702 11.69656925 15.36125665 16.00906693 20.375 19.3515625 C21.16796875 21.48828125 21.16796875 21.48828125 21.5625 24.0390625 C21.72105469 24.86792969 21.87960938 25.69679687 22.04296875 26.55078125 C21.09506554 30.52532278 18.78922505 31.95392673 15.6809082 34.4753418 C13.39746857 36.33328077 11.27844908 38.28513645 9.15625 40.32421875 C8.45113281 40.99646484 7.74601562 41.66871094 7.01953125 42.36132812 C5.58789104 43.73168683 4.15820598 45.10409099 2.73046875 46.47851562 C-1.3646601 50.37525158 -5.48741268 53.85455733 -10.17382812 57.02514648 C-10.65271484 57.46286377 -11.13160156 57.90058105 -11.625 58.3515625 C-11.96732811 61.53199685 -11.96732811 61.53199685 -9.38671875 63.734375 C-8.37024111 64.6576164 -7.3448465 65.57110009 -6.3125 66.4765625 C-5.76996582 66.96302246 -5.22743164 67.44948242 -4.66845703 67.95068359 C-1.18472485 71.04969673 2.38118609 74.03595263 6 76.9765625 C6.88558594 77.69972656 7.77117187 78.42289062 8.68359375 79.16796875 C10.53720284 80.67184027 12.40537357 82.15788168 14.28515625 83.62890625 C15.20167969 84.38300781 16.11820312 85.13710937 17.0625 85.9140625 C17.89136719 86.57535156 18.72023438 87.23664063 19.57421875 87.91796875 C21.58974576 90.64177206 22.30537777 92.69571885 22.11157227 96.1105957 C20.43807968 101.20207347 15.83954706 104.63068622 12 108.1640625 C10.2405612 109.83552936 8.48267622 111.50863377 6.7265625 113.18359375 C5.54827881 114.27764526 5.54827881 114.27764526 4.34619141 115.39379883 C2.20547731 117.38975811 2.20547731 117.38975811 0.375 120.3515625 C-7.3152439 120.3515625 -7.3152439 120.3515625 -10.72265625 117.75 C-12.0716859 116.36074084 -13.39220862 114.94339999 -14.6875 113.50390625 C-16.43042186 111.56771685 -18.18724728 109.94875495 -20.1875 108.2890625 C-25.05607191 104.11462362 -29.50746599 99.52105749 -33.99438477 94.94506836 C-37.09276021 91.80415417 -40.22957748 88.78118724 -43.57421875 85.90234375 C-47.9160066 82.1592778 -51.92400311 78.12835726 -55.9375 74.0390625 C-57.32706438 72.62397811 -58.718897 71.21111651 -60.11328125 69.80078125 C-60.71696533 69.18549561 -61.32064941 68.57020996 -61.94262695 67.9362793 C-63.74191651 66.15320116 -63.74191651 66.15320116 -66.625 64.3515625 C-67.72411474 61.2007669 -67.5326451 58.53840531 -66.625 55.3515625 C-64.23120989 52.38782237 -61.32062349 50.16709136 -58.35449219 47.79492188 C-54.85731647 44.87633029 -51.6087222 41.68014241 -48.3125 38.5390625 C-46.82903535 37.13705697 -45.34466524 35.73600885 -43.859375 34.3359375 C-43.13943359 33.65724609 -42.41949219 32.97855469 -41.67773438 32.27929688 C-38.82244999 29.59788328 -35.94582862 26.94025296 -33.0625 24.2890625 C-28.01729311 19.64827618 -23.00208428 14.97630276 -18 10.2890625 C-17.31220459 9.64509521 -16.62440918 9.00112793 -15.91577148 8.33764648 C-15.27067627 7.73251221 -14.62558105 7.12737793 -13.9609375 6.50390625 C-13.38907715 5.96757568 -12.8172168 5.43124512 -12.22802734 4.87866211 C-11.14222729 3.84429121 -10.08725066 2.77675308 -9.06274414 1.68164062 C-6.46421144 -0.72229997 -3.36243704 -0.10751979 0 0 Z " fill="#FCFCFC" transform="translate(139.625,140.6484375)"/>
<path d="M0 0 C1.00869141 0.32935547 2.01738281 0.65871094 3.05664062 0.99804688 C5.51959819 1.80346902 7.97912588 2.61823547 10.4375 3.4375 C12.37298188 12.38782796 10.05403045 19.94592917 7.453125 28.4609375 C7.00812908 29.96621263 6.56478228 31.47197609 6.12294006 32.97817993 C5.16701553 36.22404635 4.19979823 39.46624617 3.22354126 42.70605469 C1.66543119 47.87696896 0.13214393 53.05504061 -1.39770508 58.234375 C-3.59840597 65.67695481 -5.81017035 73.11616893 -8.02783203 80.55371094 C-13.25718893 98.10072607 -18.40116552 115.67290575 -23.55239296 133.24297905 C-25.33413577 139.31926294 -27.11956715 145.39444525 -28.90875149 151.4685421 C-30.03334202 155.28684952 -31.15650159 159.1055771 -32.27948189 162.92435837 C-32.79887635 164.68934295 -33.31889351 166.45414443 -33.83961296 168.21873856 C-36.89907508 178.58810582 -39.83856266 188.9744215 -42.5625 199.4375 C-49.83146603 200.85063884 -55.69479374 200.23177498 -62.75 198.25 C-63.49749512 198.04157471 -64.24499023 197.83314941 -65.01513672 197.6184082 C-70.18679037 196.07443534 -74.79298955 193.95999307 -79.5625 191.4375 C-80.21098285 182.40446087 -78.31843786 174.76296283 -75.671875 166.1875 C-75.25436745 164.7948095 -74.8382215 163.40171021 -74.42332458 162.00823975 C-73.30319569 158.25943382 -72.16488009 154.51638 -71.02318954 150.77409363 C-69.8250402 146.83483753 -68.64435257 142.8903566 -67.4621582 138.94628906 C-65.49480677 132.38944693 -63.51825605 125.83544604 -61.53564453 119.28320312 C-58.6655768 109.79475545 -55.82583597 100.29741688 -52.99609375 90.796875 C-52.77320553 90.04869003 -52.55031731 89.30050507 -52.3206749 88.52964783 C-51.43673154 85.56241108 -50.55283207 82.59516129 -49.66915321 79.62784576 C-47.82844584 73.44784893 -45.98184033 67.26962515 -44.13397217 61.09176636 C-42.64081933 56.09956846 -41.15079699 51.10643648 -39.66064453 46.11334229 C-38.91487996 43.61702886 -38.16793112 41.12106898 -37.41992188 38.62542725 C-36.31253901 34.93073391 -35.2086953 31.23499868 -34.10546875 27.5390625 C-33.60964546 25.88991852 -33.60964546 25.88991852 -33.10380554 24.2074585 C-31.11481701 17.52858709 -29.39113716 10.89781804 -28.1328125 4.0390625 C-27.53710146 1.3216409 -26.76753841 -1.05459718 -25.5625 -3.5625 C-17.79683467 -6.85702469 -7.48226194 -2.5006898 0 0 Z M-22.23271179 -0.28379822 C-24.4669218 2.60819742 -25.17822233 6.08892867 -26.14453125 9.55859375 C-26.39074219 10.41150497 -26.63695312 11.2644162 -26.890625 12.14317322 C-27.72782584 15.05125904 -28.55109425 17.96312191 -29.375 20.875 C-29.9796876 22.98352998 -30.58543526 25.09175619 -31.19213867 27.19970703 C-32.5557829 31.94191603 -33.91414401 36.68560044 -35.26953125 41.43017578 C-38.89821303 54.12492532 -42.58002827 66.80439082 -46.25376225 79.48615742 C-47.67038278 84.37695829 -49.08486486 89.26837126 -50.49752522 94.16031742 C-54.99991612 109.75140617 -59.5158345 125.33779461 -64.13012505 140.89619064 C-64.74513552 142.97041921 -65.35918643 145.04492936 -65.97291565 147.11953735 C-66.36823499 148.45551148 -66.76357466 149.79147958 -67.15893555 151.12744141 C-67.44594818 152.09733222 -67.44594818 152.09733222 -67.73875904 153.08681679 C-69.02918653 157.44379173 -70.33161476 161.79708574 -71.63598633 166.14990234 C-72.29674799 168.37847365 -72.95716979 170.60714576 -73.6171875 172.8359375 C-73.91915543 173.83222168 -74.22112335 174.82850586 -74.53224182 175.85498047 C-75.90017799 180.50458182 -76.94882626 184.53207877 -76.5625 189.4375 C-70.79118152 192.27069271 -64.95124646 194.38202867 -58.8125 196.25 C-58.07974854 196.48098389 -57.34699707 196.71196777 -56.59204102 196.94995117 C-52.59459626 198.1312529 -49.54950606 198.87725219 -45.5625 197.4375 C-43.11249141 194.98749141 -42.75890796 193.23960593 -41.81347656 189.91357422 C-41.47785202 188.74533615 -41.14222748 187.57709808 -40.7964325 186.37345886 C-40.43189846 185.07972941 -40.06746569 183.78597142 -39.703125 182.4921875 C-39.31931456 181.14784268 -38.93488708 179.8036739 -38.54988098 178.45967102 C-37.72754887 175.58462051 -36.90922066 172.70847235 -36.09402466 169.83139038 C-34.80299365 165.27541143 -33.50291874 160.72204674 -32.20092773 156.16918945 C-31.76297066 154.63740956 -31.32502816 153.1056255 -30.88710022 151.57383728 C-30.67051317 150.81627577 -30.45392612 150.05871426 -30.23077583 149.27819633 C-29.57269287 146.97512868 -28.91547826 144.67181493 -28.25852966 142.36842346 C-25.02192951 131.02249726 -21.74320997 119.68943685 -18.42715454 108.36645508 C-17.62141868 105.61276043 -16.81847361 102.85826665 -16.01635742 100.10351562 C-13.13687925 90.21919037 -10.24071758 80.34002012 -7.32022953 70.46774006 C-5.44459729 64.12533034 -3.57841826 57.78017678 -1.71752071 51.43342876 C-0.56265345 47.49647943 0.59688173 43.56103686 1.76754761 39.62875366 C2.86952315 35.92706663 3.95955124 32.2220656 5.04086304 28.51429176 C5.44453199 27.13814039 5.85259937 25.76327064 6.26531982 24.38980675 C6.83438729 22.49366554 7.38621813 20.59237706 7.93725586 18.69091797 C8.41019325 17.08940384 8.41019325 17.08940384 8.89268494 15.45553589 C9.49046493 12.14409756 9.17978189 9.6992827 8.4375 6.4375 C4.35722749 5.09467071 0.27281809 3.76489205 -3.8125 2.4375 C-4.97136719 2.0559375 -6.13023437 1.674375 -7.32421875 1.28125 C-8.43925781 0.9203125 -9.55429688 0.559375 -10.703125 0.1875 C-11.72954102 -0.14765625 -12.75595703 -0.4828125 -13.81347656 -0.828125 C-18.23040637 -2.03475694 -18.23040637 -2.03475694 -22.23271179 -0.28379822 Z " fill="#060606" transform="translate(234.5625,102.5625)"/>
<path d="M0 0 C7.53745219 -0.30149809 7.53745219 -0.30149809 10.64453125 2.15625 C12.33203125 4.19921875 12.33203125 4.19921875 13.71875 6.23828125 C15.51020359 8.41128175 17.05730092 9.6918447 19.3203125 11.3203125 C24.07403753 14.7712213 28.06117088 18.80563443 32.14453125 23.01171875 C36.83832741 27.82093612 41.57408524 32.4456107 46.67138672 36.82592773 C50.08982948 39.85481522 53.261417 43.12621893 56.45703125 46.38671875 C57.75283762 47.70805825 59.0509228 49.02716783 60.3515625 50.34375 C60.91335205 50.91714111 61.4751416 51.49053223 62.05395508 52.08129883 C63.78017402 53.7837979 63.78017402 53.7837979 66.64453125 55.57421875 C67.74448374 58.72741588 67.57769876 61.39047077 66.64453125 64.57421875 C64.47757228 67.14944536 62.11931446 69.13329251 59.50390625 71.25 C56.63679665 73.58050576 54.0965093 76.05421488 51.51953125 78.69921875 C48.68554582 81.56840897 45.84015196 84.3353846 42.76953125 86.94921875 C39.21166949 89.98852576 35.93010828 93.24785243 32.64453125 96.57421875 C28.77407635 100.49272399 24.86515505 104.25017464 20.625 107.7734375 C18.504894 109.63387748 18.504894 109.63387748 16.3203125 112.21875 C9.16663834 120.24838426 9.16663834 120.24838426 2.95703125 120.69921875 C-1.1415309 120.28017808 -3.1935829 119.33784456 -5.91796875 116.26171875 C-7.06888241 114.70295705 -8.21408075 113.13996896 -9.35546875 111.57421875 C-11.10767433 109.57245662 -12.87107094 107.59682487 -14.66796875 105.63671875 C-15.50972656 104.69957031 -16.35148438 103.76242188 -17.21875 102.796875 C-19.15413906 100.53535679 -19.15413906 100.53535679 -21.35546875 99.57421875 C-21.91489263 96.0498483 -22.17667019 93.9785665 -21.35546875 90.57421875 C-18.47643956 87.04086475 -14.90551972 84.40868353 -11.35546875 81.57421875 C-9.32472656 79.77369832 -7.34023657 77.92514954 -5.35546875 76.07421875 C-2.39982649 73.3369996 0.56998642 70.63812826 3.62890625 68.015625 C4.5415625 67.23058594 5.45421875 66.44554687 6.39453125 65.63671875 C7.214375 64.94707031 8.03421875 64.25742188 8.87890625 63.546875 C11.08914741 61.51870417 11.08914741 61.51870417 10.64453125 57.57421875 C9.17032972 56.05745706 9.17032972 56.05745706 7.14453125 54.82421875 C3.2099697 52.0741819 -0.01400081 49.01486745 -3.35546875 45.58203125 C-5.29252848 43.63740488 -7.286219 41.81422928 -9.35546875 40.01171875 C-10.00386719 39.439375 -10.65226563 38.86703125 -11.3203125 38.27734375 C-13.35734415 36.52623693 -13.35734415 36.52623693 -15.671875 34.93359375 C-16.41308594 34.381875 -17.15429688 33.83015625 -17.91796875 33.26171875 C-18.59988281 32.79121094 -19.28179687 32.32070312 -19.984375 31.8359375 C-21.984895 28.53593442 -21.71883206 25.96529692 -21.19458008 22.2019043 C-19.64536162 17.35051114 -16.1331007 14.45368617 -12.41796875 11.13671875 C-10.94895108 9.76469964 -9.48143639 8.39106905 -8.015625 7.015625 C-7.36215088 6.42467041 -6.70867676 5.83371582 -6.03540039 5.22485352 C-0.95467387 0.23273144 -0.95467387 0.23273144 0 0 Z M-6.35546875 10.57421875 C-6.97035156 11.26902344 -7.58523437 11.96382812 -8.21875 12.6796875 C-9.41417229 14.04405598 -10.600752 15.41623468 -11.77734375 16.796875 C-13.35546875 18.57421875 -13.35546875 18.57421875 -15.79296875 20.69921875 C-17.57035712 22.52597238 -17.57035712 22.52597238 -17.87890625 25.265625 C-17.09747436 30.20497431 -14.21651359 32.20614901 -10.54296875 35.38671875 C-9.86024902 35.9998291 -9.1775293 36.61293945 -8.47412109 37.24462891 C-3.72196068 41.48003225 1.15227591 45.55754394 6.125 49.53125 C10.08568203 52.74277977 13.86679774 56.15093925 17.64453125 59.57421875 C16.41521275 63.26217425 15.07440331 64.03023189 12.01953125 66.38671875 C6.42195021 70.84580873 1.20426939 75.61460812 -3.9831543 80.54223633 C-7.87622918 84.23292971 -11.83025803 87.73372157 -16.1328125 90.94921875 C-17.57114265 92.62070241 -17.57114265 92.62070241 -17.93359375 95.35546875 C-17.09952381 99.99920949 -14.57360224 101.98086018 -11.16796875 105.07421875 C-10.00544985 106.16545722 -8.84526586 107.25918876 -7.6875 108.35546875 C-7.11725098 108.88269531 -6.54700195 109.40992188 -5.95947266 109.953125 C-4.37699765 111.55246047 -3.16115424 113.20821607 -1.8671875 115.04296875 C0.45945765 117.95233265 0.45945765 117.95233265 4.1171875 117.76953125 C8.2943675 116.35400846 10.1139254 114.68635054 13.08203125 111.44921875 C16.23985387 108.09200033 19.37896471 104.81415689 22.89453125 101.82421875 C26.049599 99.13086823 28.96168038 96.27852723 31.8671875 93.3203125 C33.71046699 91.50944232 35.62275924 89.82100521 37.58203125 88.13671875 C40.39029472 85.71804096 43.04423718 83.21522192 45.64453125 80.57421875 C48.24482532 77.93321558 50.89876778 75.43039654 53.70703125 73.01171875 C55.02082185 71.86736543 56.33332098 70.72152774 57.64453125 69.57421875 C58.33546875 68.97480469 59.02640625 68.37539062 59.73828125 67.7578125 C60.38796875 67.16097656 61.03765625 66.56414062 61.70703125 65.94921875 C62.29613281 65.42070312 62.88523437 64.8921875 63.4921875 64.34765625 C64.86763805 62.59036622 64.86763805 62.59036622 64.61328125 60.16796875 C63.36996139 56.83908008 61.64673747 55.1503731 59.08203125 52.69921875 C58.17324219 51.82523438 57.26445312 50.95125 56.328125 50.05078125 C53.50364902 47.44420516 50.6281161 44.91502515 47.70703125 42.41796875 C44.35690871 39.42316224 41.25076819 36.18788279 38.09375 32.9921875 C35.33407085 30.26771957 32.45272468 27.73874499 29.5078125 25.21875 C27.64001332 23.57023123 25.88997501 21.85118294 24.14453125 20.07421875 C21.1008848 16.98215065 17.92240015 14.10421015 14.625 11.28515625 C13.31199026 10.15084015 12.02210056 8.98915968 10.7578125 7.80078125 C8.28116437 5.51216498 6.37438648 3.8114217 3.14453125 2.76171875 C-1.05702143 4.12722337 -3.48548345 7.32483241 -6.35546875 10.57421875 Z " fill="#060606" transform="translate(261.35546875,140.42578125)"/>
<path d="M0 0 C2.375 0.3515625 2.375 0.3515625 4.8125 2.0390625 C6.375 4.3515625 6.375 4.3515625 7.625 6.6015625 C10.86727702 11.69656925 15.36125665 16.00906693 20.375 19.3515625 C21.16796875 21.48828125 21.16796875 21.48828125 21.5625 24.0390625 C21.72105469 24.86792969 21.87960938 25.69679687 22.04296875 26.55078125 C21.09506554 30.52532278 18.78922505 31.95392673 15.6809082 34.4753418 C13.39746857 36.33328077 11.27844908 38.28513645 9.15625 40.32421875 C8.45113281 40.99646484 7.74601562 41.66871094 7.01953125 42.36132812 C5.58789104 43.73168683 4.15820598 45.10409099 2.73046875 46.47851562 C-1.3646601 50.37525158 -5.48741268 53.85455733 -10.17382812 57.02514648 C-10.65271484 57.46286377 -11.13160156 57.90058105 -11.625 58.3515625 C-11.96732811 61.53199685 -11.96732811 61.53199685 -9.38671875 63.734375 C-8.37024111 64.6576164 -7.3448465 65.57110009 -6.3125 66.4765625 C-5.76996582 66.96302246 -5.22743164 67.44948242 -4.66845703 67.95068359 C-1.18472485 71.04969673 2.38118609 74.03595263 6 76.9765625 C6.88558594 77.69972656 7.77117187 78.42289062 8.68359375 79.16796875 C10.53720284 80.67184027 12.40537357 82.15788168 14.28515625 83.62890625 C15.20167969 84.38300781 16.11820312 85.13710937 17.0625 85.9140625 C17.89136719 86.57535156 18.72023438 87.23664063 19.57421875 87.91796875 C21.58974576 90.64177206 22.30537777 92.69571885 22.11157227 96.1105957 C20.43807968 101.20207347 15.83954706 104.63068622 12 108.1640625 C10.2405612 109.83552936 8.48267622 111.50863377 6.7265625 113.18359375 C5.54827881 114.27764526 5.54827881 114.27764526 4.34619141 115.39379883 C2.20547731 117.38975811 2.20547731 117.38975811 0.375 120.3515625 C-7.3152439 120.3515625 -7.3152439 120.3515625 -10.72265625 117.75 C-12.0716859 116.36074084 -13.39220862 114.94339999 -14.6875 113.50390625 C-16.43042186 111.56771685 -18.18724728 109.94875495 -20.1875 108.2890625 C-25.05607191 104.11462362 -29.50746599 99.52105749 -33.99438477 94.94506836 C-37.09276021 91.80415417 -40.22957748 88.78118724 -43.57421875 85.90234375 C-47.9160066 82.1592778 -51.92400311 78.12835726 -55.9375 74.0390625 C-57.32706438 72.62397811 -58.718897 71.21111651 -60.11328125 69.80078125 C-60.71696533 69.18549561 -61.32064941 68.57020996 -61.94262695 67.9362793 C-63.74191651 66.15320116 -63.74191651 66.15320116 -66.625 64.3515625 C-67.72411474 61.2007669 -67.5326451 58.53840531 -66.625 55.3515625 C-64.23120989 52.38782237 -61.32062349 50.16709136 -58.35449219 47.79492188 C-54.85731647 44.87633029 -51.6087222 41.68014241 -48.3125 38.5390625 C-46.82903535 37.13705697 -45.34466524 35.73600885 -43.859375 34.3359375 C-43.13943359 33.65724609 -42.41949219 32.97855469 -41.67773438 32.27929688 C-38.82244999 29.59788328 -35.94582862 26.94025296 -33.0625 24.2890625 C-28.01729311 19.64827618 -23.00208428 14.97630276 -18 10.2890625 C-17.31220459 9.64509521 -16.62440918 9.00112793 -15.91577148 8.33764648 C-15.27067627 7.73251221 -14.62558105 7.12737793 -13.9609375 6.50390625 C-13.38907715 5.96757568 -12.8172168 5.43124512 -12.22802734 4.87866211 C-11.14222729 3.84429121 -10.08725066 2.77675308 -9.06274414 1.68164062 C-6.46421144 -0.72229997 -3.36243704 -0.10751979 0 0 Z M-8.4375 6.4140625 C-9.13488281 7.05472656 -9.83226562 7.69539062 -10.55078125 8.35546875 C-13.02150602 10.73313421 -15.44115115 13.15528003 -17.84375 15.6015625 C-20.34396185 18.05791099 -23.00180516 20.31465618 -25.65625 22.6015625 C-27.55523071 24.28954536 -29.34505988 26.03925984 -31.125 27.8515625 C-34.16332417 30.94512893 -37.3726532 33.77261757 -40.65625 36.6015625 C-43.16272851 38.8295434 -45.49099983 41.2060088 -47.83984375 43.59765625 C-49.72688465 45.45166361 -51.6852937 47.18540241 -53.6875 48.9140625 C-54.3475 49.49027344 -55.0075 50.06648438 -55.6875 50.66015625 C-56.95188345 51.76394261 -58.22247915 52.86066453 -59.5 53.94921875 C-61.4079434 55.60877097 -61.4079434 55.60877097 -63.625 58.3515625 C-63.50218551 63.01851305 -61.33288787 65.10097043 -58.0625 68.2265625 C-57.15628906 69.09796875 -56.25007813 69.969375 -55.31640625 70.8671875 C-52.44397217 73.51866511 -49.52494842 76.09979939 -46.5546875 78.640625 C-43.78392418 81.09729369 -41.222071 83.74516227 -38.625 86.3828125 C-36.68608998 88.29142705 -34.68800449 90.07866802 -32.625 91.8515625 C-29.83603607 94.24832838 -27.20509215 96.73115641 -24.625 99.3515625 C-21.4201365 102.60024249 -18.11129617 105.65216791 -14.6328125 108.60546875 C-13.23532354 109.82079475 -11.87792591 111.08313128 -10.5546875 112.37890625 C-9.87664062 113.02988281 -9.19859375 113.68085938 -8.5 114.3515625 C-7.89929688 114.9496875 -7.29859375 115.5478125 -6.6796875 116.1640625 C-4.60220772 117.58797793 -4.60220772 117.58797793 -1.7265625 117.390625 C2.2183036 116.06904517 4.2751286 113.82324239 6.875 110.7265625 C7.3491333 110.18185303 7.8232666 109.63714355 8.31176758 109.07592773 C9.24943814 107.99639499 10.18167406 106.91211322 11.10791016 105.82275391 C12.17927568 104.5788139 13.29420712 103.37259813 14.41796875 102.17578125 C16.50955222 99.93515383 18.18775765 98.09668446 18.9453125 95.08203125 C18.02312049 90.66687908 14.86237434 88.49972676 11.5625 85.6015625 C10.87978027 84.98394043 10.19706055 84.36631836 9.49365234 83.72998047 C4.74660743 79.46798631 -0.12180902 75.37697598 -5.10546875 71.39453125 C-9.06615078 68.18300148 -12.84726649 64.774842 -16.625 61.3515625 C-15.55018582 58.12711996 -14.94927942 57.51881583 -12.4375 55.4140625 C-11.71691406 54.80175781 -10.99632812 54.18945312 -10.25390625 53.55859375 C-9.38636719 52.83027344 -8.51882812 52.10195312 -7.625 51.3515625 C-3.54526424 47.89179286 0.51192548 44.40678946 4.55712891 40.90673828 C6.34742571 39.37515211 8.16148272 37.87622106 9.98046875 36.37890625 C11.09194335 35.4332282 12.20265541 34.48665299 13.3125 33.5390625 C14.31152344 32.70761719 15.31054688 31.87617188 16.33984375 31.01953125 C18.68645351 28.45707249 18.68645351 28.45707249 18.58203125 24.94140625 C17.0227034 20.30379363 14.67740226 17.97580571 11.125 14.7265625 C10.55136719 14.18 9.97773438 13.6334375 9.38671875 13.0703125 C8.25742254 11.99503729 7.1201869 10.92802969 5.97460938 9.87011719 C4.48918148 8.45995823 3.09135338 6.95906865 1.703125 5.453125 C-2.29768667 1.84165406 -4.90648007 3.14193609 -8.4375 6.4140625 Z " fill="#080808" transform="translate(139.625,140.6484375)"/>
<path d="M0 0 C0.66 0.66 1.32 1.32 2 2 C1.62326319 10.75146031 -2.19229585 19.89456782 -4.671875 28.27734375 C-5.14768794 29.89792279 -5.62310573 31.51861789 -6.09815979 33.13941956 C-7.37784927 37.50143857 -8.66279633 41.86189095 -9.94913101 46.22195435 C-11.56626067 51.70523497 -13.17887585 57.18984491 -14.79226589 62.67422676 C-15.20009603 64.06055211 -15.20009603 64.06055211 -15.61616516 65.47488403 C-15.88944452 66.40387638 -16.16272388 67.33286873 -16.44428444 68.29001236 C-17.28226179 71.1378073 -18.12092824 73.98539872 -18.9596405 76.83297729 C-22.54062588 88.99738917 -26.08505826 101.1719334 -29.60398483 113.35443306 C-31.11280055 118.57395236 -32.62750225 123.79176695 -34.14224052 129.00957012 C-35.34715985 133.16222024 -36.54794952 137.31597968 -37.73986816 141.47238159 C-38.85476466 145.35993756 -39.97979205 149.2444133 -41.11271477 153.12675285 C-41.52548723 154.54837167 -41.93437307 155.9711255 -42.33911324 157.39505196 C-42.88944927 159.32945298 -43.45468704 161.25959624 -44.02075195 163.18945312 C-44.33252884 164.27005005 -44.64430573 165.35064697 -44.9655304 166.46398926 C-46 169 -46 169 -49 171 C-45.58769481 156.32796189 -41.24991082 141.92018395 -36.99374771 127.47652817 C-35.94270471 123.90674289 -34.89555897 120.33581546 -33.84838867 116.76489258 C-33.5299627 115.67908763 -33.5299627 115.67908763 -33.20510387 114.57134724 C-32.77258691 113.09647268 -32.34008392 111.62159403 -31.90759468 110.14671135 C-31.25109879 107.90839675 -30.59421112 105.67019743 -29.9372406 103.43202209 C-25.55772348 88.50899864 -21.21376444 73.57571633 -16.87915802 58.63959503 C-15.96673812 55.49637586 -15.05330834 52.35345007 -14.14013672 49.21044922 C-9.38122512 32.8198358 -4.67557894 16.41455876 0 0 Z " fill="#171717" transform="translate(242,118)"/>
<path d="M0 0 C0.66 0.33 1.32 0.66 2 1 C1.03900391 1.94359375 1.03900391 1.94359375 0.05859375 2.90625 C-5.89087362 8.79321087 -5.89087362 8.79321087 -11.5 15 C-14.30748304 18.23225589 -17.14123183 21.43225884 -20.0625 24.5625 C-20.85785156 25.43003906 -21.65320313 26.29757812 -22.47265625 27.19140625 C-25 29 -25 29 -28.30859375 28.77734375 C-29.19675781 28.52082031 -30.08492188 28.26429688 -31 28 C-30.01 27.34 -29.02 26.68 -28 26 C-22.38254773 21.33313331 -17.06389668 16.31827149 -11.75 11.3125 C-11.05648438 10.66216797 -10.36296875 10.01183594 -9.6484375 9.34179688 C-6.3836898 6.27405981 -3.13990231 3.19655003 0 0 Z " fill="#0E0E0E" transform="translate(295,231)"/>
<path d="M0 0 C1.20255487 3.60766461 0.68438565 4.9025624 -0.36328125 8.5078125 C-0.67330078 9.57644531 -0.98332031 10.64507812 -1.30273438 11.74609375 C-1.63595703 12.86113281 -1.96917969 13.97617188 -2.3125 15.125 C-2.63412109 16.24777344 -2.95574219 17.37054688 -3.28710938 18.52734375 C-5.11118332 24.7224532 -5.11118332 24.7224532 -6 27 C-6.66 27.33 -7.32 27.66 -8 28 C-7.38936897 22.00346609 -6.1999389 16.42048345 -4.5625 10.625 C-4.34529297 9.81933594 -4.12808594 9.01367188 -3.90429688 8.18359375 C-3.68966797 7.41402344 -3.47503906 6.64445313 -3.25390625 5.8515625 C-3.06127197 5.15885254 -2.8686377 4.46614258 -2.67016602 3.75244141 C-2 2 -2 2 0 0 Z " fill="#121212" transform="translate(215,216)"/>
<path d="M0 0 C1.21065165 3.63195496 0.62784815 5.06531629 -0.4375 8.6875 C-0.72496094 9.68136719 -1.01242188 10.67523438 -1.30859375 11.69921875 C-1.53675781 12.45847656 -1.76492187 13.21773438 -2 14 C-3.32 14 -4.64 14 -6 14 C-5.70222656 13.43667969 -5.40445313 12.87335938 -5.09765625 12.29296875 C-3.99809713 9.99602497 -3.2035511 7.73899695 -2.4375 5.3125 C-1.11004785 1.11004785 -1.11004785 1.11004785 0 0 Z " fill="#0E0E0E" transform="translate(194,288)"/>
<path d="M0 0 C1.16835309 3.50505927 0.75193262 4.66433282 -0.3125 8.125 C-0.57675781 9.01445312 -0.84101563 9.90390625 -1.11328125 10.8203125 C-2 13 -2 13 -4 14 C-2.86792453 2.86792453 -2.86792453 2.86792453 0 0 Z " fill="#0C0C0C" transform="translate(211,230)"/>
<path d="M0 0 C0.66 0.66 1.32 1.32 2 2 C1.7578125 4.3828125 1.7578125 4.3828125 1.125 7.125 C0.92132813 8.03507813 0.71765625 8.94515625 0.5078125 9.8828125 C0.34023437 10.58148438 0.17265625 11.28015625 0 12 C-0.99 12.33 -1.98 12.66 -3 13 C-2.01 8.71 -1.02 4.42 0 0 Z " fill="#181818" transform="translate(231,156)"/>
<path d="M0 0 C1.39195915 4.17587745 -0.17676781 6.13474776 -2 10 C-2.33 10 -2.66 10 -3 10 C-2.25 2.25 -2.25 2.25 0 0 Z " fill="#0A0A0A" transform="translate(235,148)"/>
<path d="M0 0 C0.66 0.66 1.32 1.32 2 2 C1.625 5.625 1.625 5.625 1 9 C0.01 9.33 -0.98 9.66 -2 10 C-1.34 6.7 -0.68 3.4 0 0 Z " fill="#1A1A1A" transform="translate(242,118)"/>
<path d="M0 0 C1 2 1 2 0.44140625 3.9453125 C0.15136719 4.66460937 -0.13867188 5.38390625 -0.4375 6.125 C-0.72496094 6.84945312 -1.01242188 7.57390625 -1.30859375 8.3203125 C-1.53675781 8.87460938 -1.76492187 9.42890625 -2 10 C-2.33 10 -2.66 10 -3 10 C-2.25 2.25 -2.25 2.25 0 0 Z " fill="#0A0A0A" transform="translate(226,179)"/>
</svg>
